REM DIRINDEX 1\3,1\4,1\5,1\6,1\2\7,1\2\8,1\2\9,1\10
REM DIRNAME cjc056,folder01,folder02,folder03,folder04,folder05,folder06,folder07,folder08,folder09
TITLE ""
FILE "2-22 Level 5-720-730.mp3" MP3
  TRACK 01 AUDIO
    TITLE "0:"
    INDEX 01 00:00:00
  TRACK 02 AUDIO
    TITLE "7:cjc056_2493"
    INDEX 01 00:00:07
  TRACK 03 AUDIO
    TITLE "0:"
    INDEX 01 00:01:15
  TRACK 04 AUDIO
    TITLE "8:cjc056_2494"
    INDEX 01 00:01:26
  TRACK 05 AUDIO
    TITLE "0:"
    INDEX 01 00:02:45
  TRACK 06 AUDIO
    TITLE "9:cjc056_2495"
    INDEX 01 00:02:59
  TRACK 07 AUDIO
    TITLE "0:"
    INDEX 01 00:06:39
  TRACK 08 AUDIO
    TITLE "7:cjc056_2496"
    INDEX 01 00:07:15
  TRACK 09 AUDIO
    TITLE "0:"
    INDEX 01 00:08:13
  TRACK 10 AUDIO
    TITLE "8:cjc056_2497"
    INDEX 01 00:08:26
  TRACK 11 AUDIO
    TITLE "0:"
    INDEX 01 00:10:10
  TRACK 12 AUDIO
    TITLE "9:cjc056_2498"
    INDEX 01 00:10:19
  TRACK 13 AUDIO
    TITLE "0:"
    INDEX 01 00:12:54
  TRACK 14 AUDIO
    TITLE "7:cjc056_2499"
    INDEX 01 00:13:30
  TRACK 15 AUDIO
    TITLE "0:"
    INDEX 01 00:14:53
  TRACK 16 AUDIO
    TITLE "8:cjc056_2500"
    INDEX 01 00:14:68
  TRACK 17 AUDIO
    TITLE "0:"
    INDEX 01 00:16:30
  TRACK 18 AUDIO
    TITLE "9:cjc056_2501"
    INDEX 01 00:16:40
  TRACK 19 AUDIO
    TITLE "0:"
    INDEX 01 00:19:48
  TRACK 20 AUDIO
    TITLE "7:cjc056_2502"
    INDEX 01 00:20:24
  TRACK 21 AUDIO
    TITLE "0:"
    INDEX 01 00:21:33
  TRACK 22 AUDIO
    TITLE "8:cjc056_2503"
    INDEX 01 00:21:43
  TRACK 23 AUDIO
    TITLE "0:"
    INDEX 01 00:23:20
  TRACK 24 AUDIO
    TITLE "9:cjc056_2504"
    INDEX 01 00:23:34
  TRACK 25 AUDIO
    TITLE "0:"
    INDEX 01 00:26:71
  TRACK 26 AUDIO
    TITLE "7:cjc056_2505"
    INDEX 01 00:27:47
  TRACK 27 AUDIO
    TITLE "0:"
    INDEX 01 00:28:49
  TRACK 28 AUDIO
    TITLE "8:cjc056_2506"
    INDEX 01 00:28:62
  TRACK 29 AUDIO
    TITLE "0:"
    INDEX 01 00:29:68
  TRACK 30 AUDIO
    TITLE "9:cjc056_2507"
    INDEX 01 00:30:05
  TRACK 31 AUDIO
    TITLE "0:"
    INDEX 01 00:34:04
  TRACK 32 AUDIO
    TITLE "7:cjc056_2508"
    INDEX 01 00:34:55
  TRACK 33 AUDIO
    TITLE "0:"
    INDEX 01 00:35:64
  TRACK 34 AUDIO
    TITLE "8:cjc056_2509"
    INDEX 01 00:36:05
  TRACK 35 AUDIO
    TITLE "0:"
    INDEX 01 00:37:10
  TRACK 36 AUDIO
    TITLE "9:cjc056_2510"
    INDEX 01 00:37:24
  TRACK 37 AUDIO
    TITLE "0:"
    INDEX 01 00:40:68
  TRACK 38 AUDIO
    TITLE "7:cjc056_2511"
    INDEX 01 00:41:45
  TRACK 39 AUDIO
    TITLE "0:"
    INDEX 01 00:42:57
  TRACK 40 AUDIO
    TITLE "8:cjc056_2512"
    INDEX 01 00:42:68
  TRACK 41 AUDIO
    TITLE "0:"
    INDEX 01 00:44:01
  TRACK 42 AUDIO
    TITLE "9:cjc056_2513"
    INDEX 01 00:44:14
  TRACK 43 AUDIO
    TITLE "0:"
    INDEX 01 00:46:56
  TRACK 44 AUDIO
    TITLE "7:cjc056_2514"
    INDEX 01 00:47:32
  TRACK 45 AUDIO
    TITLE "0:"
    INDEX 01 00:48:36
  TRACK 46 AUDIO
    TITLE "8:cjc056_2515"
    INDEX 01 00:48:48
  TRACK 47 AUDIO
    TITLE "0:"
    INDEX 01 00:49:31
  TRACK 48 AUDIO
    TITLE "9:cjc056_2516"
    INDEX 01 00:49:45
  TRACK 49 AUDIO
    TITLE "0:"
    INDEX 01 00:52:12
  TRACK 50 AUDIO
    TITLE "7:cjc056_2517"
    INDEX 01 00:52:63
  TRACK 51 AUDIO
    TITLE "0:"
    INDEX 01 00:53:72
  TRACK 52 AUDIO
    TITLE "8:cjc056_2518"
    INDEX 01 00:54:09
  TRACK 53 AUDIO
    TITLE "0:"
    INDEX 01 00:55:06
  TRACK 54 AUDIO
    TITLE "9:cjc056_2519"
    INDEX 01 00:55:16
  TRACK 55 AUDIO
    TITLE "0:"
    INDEX 01 00:58:44
  TRACK 56 AUDIO
    TITLE "7:cjc056_2520"
    INDEX 01 00:59:20
  TRACK 57 AUDIO
    TITLE "0:"
    INDEX 01 01:00:21
  TRACK 58 AUDIO
    TITLE "8:cjc056_2521"
    INDEX 01 01:00:35
  TRACK 59 AUDIO
    TITLE "0:"
    INDEX 01 01:01:29
  TRACK 60 AUDIO
    TITLE "9:cjc056_2522"
    INDEX 01 01:01:42
  TRACK 61 AUDIO
    TITLE "0:"
    INDEX 01 01:04:37
  TRACK 62 AUDIO
    TITLE "7:cjc056_2523"
    INDEX 01 01:05:15
  TRACK 63 AUDIO
    TITLE "0:"
    INDEX 01 01:06:16
  TRACK 64 AUDIO
    TITLE "8:cjc056_2524"
    INDEX 01 01:06:30
  TRACK 65 AUDIO
    TITLE "0:"
    INDEX 01 01:07:19
  TRACK 66 AUDIO
    TITLE "9:cjc056_2525"
    INDEX 01 01:07:33
  TRACK 67 AUDIO
    TITLE "0:"
    INDEX 01 01:10:04
